<svg id="Layer_1" data-name="Layer 1" xmlns="http://www.w3.org/2000/svg" viewBox="0 0 512 512"><defs><style>.cls-1{fill:#efeae6;}.cls-2{fill:#6d4135;}.cls-3{fill:#ffd38d;}</style></defs><title>camera-filled</title><polygon class="cls-1" points="352 128 320 64 192 64 160 128 21.33 128 21.33 448 490.67 448 490.67 128 352 128"/><path class="cls-2" d="M490.67,469.33H21.33A21.33,21.33,0,0,1,0,448V128a21.33,21.33,0,0,1,21.33-21.33H146.82l26.1-52.21A21.34,21.34,0,0,1,192,42.67H320a21.34,21.34,0,0,1,19.08,11.79l26.1,52.21H490.67A21.33,21.33,0,0,1,512,128V448A21.33,21.33,0,0,1,490.67,469.33Zm-448-42.67H469.33V149.33H352a21.34,21.34,0,0,1-19.08-11.79l-26.1-52.21H205.18l-26.1,52.21A21.34,21.34,0,0,1,160,149.33H42.67Z"/><circle class="cls-3" cx="256" cy="277.33" r="85.33"/><path class="cls-2" d="M256,384A106.67,106.67,0,1,1,362.67,277.33,106.79,106.79,0,0,1,256,384Zm0-170.67a64,64,0,1,0,64,64A64.07,64.07,0,0,0,256,213.33Z"/></svg>